<svg width="172" height="33" viewBox="0 0 172 33" fill="none" xmlns="http://www.w3.org/2000/svg">
<circle cx="16.5" cy="16.5" r="16.5" fill="#4600E9"/>
<path fill-rule="evenodd" clip-rule="evenodd" d="M26.8566 12.329C26.1873 12.7869 25.7631 13.3329 25.5909 13.9579C25.4905 14.3221 25.4558 14.6771 25.5169 14.7149C25.6108 14.7729 26.2449 14.4152 26.5437 14.1357C26.8673 13.833 27.1206 13.4043 27.2347 12.9659C27.3085 12.6827 27.3312 12.0728 27.2679 12.0728C27.2476 12.0728 27.0625 12.1881 26.8566 12.329ZM25.7985 14.1139C25.7631 14.0872 25.934 13.7611 26.0376 13.6575C26.2177 13.4774 26.2096 13.5189 26.0035 13.8334C25.8985 13.9936 25.8063 14.1198 25.7985 14.1139Z" fill="white"/>
<path d="M11.5345 16.9769C11.525 16.9863 11.3391 16.9723 11.1212 16.9456L10.7409 16.8991C10.7307 16.8978 10.7213 16.893 10.7144 16.8854L10.5001 16.6509C10.0337 16.1406 9.52573 15.9777 8.39767 15.9766C7.56586 15.9759 7.5391 15.9864 7.67937 16.2588C8.02383 16.9278 8.80297 17.3535 9.68281 17.3535C9.91909 17.3535 10.2249 17.3243 10.3625 17.2886C10.5068 17.2512 10.6425 17.2398 10.6835 17.2617C10.7224 17.2826 11.0413 17.3479 11.3921 17.4069L12.0299 17.5143L11.5345 16.9769Z" fill="white"/>
<path fill-rule="evenodd" clip-rule="evenodd" d="M10.9822 9.75486C10.9824 9.52701 11.0098 9.26316 11.0431 9.16843C11.0765 9.07374 11.1214 8.99623 11.143 8.99623C11.2117 8.99623 11.3765 9.26481 11.4749 9.53675C11.5763 9.81713 11.6155 10.586 11.542 10.8503L11.5242 10.9141C11.5156 10.9452 11.4771 10.9559 11.4536 10.9339L11.3908 10.8749C11.1108 10.6119 10.9819 10.1165 10.9822 9.75486ZM23.8039 12.0767C23.8214 11.9751 23.898 11.8837 24.0475 11.6936C24.2016 11.4976 24.3438 11.3472 24.3634 11.3593C24.421 11.3949 24.678 12.1111 24.776 12.5091C24.926 13.1186 24.9776 13.655 24.9483 14.2999C24.8949 15.4713 24.505 16.5511 23.6948 17.771C23.2895 18.3813 22.7325 19.0385 21.6182 20.2214C20.4681 21.4423 20.332 21.5927 19.9647 22.048C18.8675 23.4082 18.3069 24.7332 18.3058 25.9689C18.305 26.8389 18.5706 27.7198 19.0693 28.5013C19.1543 28.6344 19.2237 28.7532 19.2237 28.7653C19.2237 28.7775 18.1493 28.7874 16.8361 28.7874C15.5229 28.7874 14.4485 28.7777 14.4485 28.7659C14.4485 28.754 14.6012 28.4286 14.7878 28.0427C15.1383 27.3177 15.2802 26.9594 15.8199 25.4353C16.9872 22.1387 17.8928 20.7331 19.9664 18.9993C20.9423 18.1835 21.9485 17.3921 22.7989 16.4409C22.9411 16.2818 23.078 16.1178 23.2016 15.9437C23.5074 15.5127 23.7755 14.9885 23.9347 14.5065C24.0489 14.1608 24.0638 14.0481 24.065 13.5193C24.0658 13.1646 24.0435 12.8609 23.9182 12.5291L23.9178 12.528C23.8289 12.2923 23.7862 12.1793 23.8039 12.0767Z" fill="white"/>
<path d="M26.0193 8.64596C25.3125 8.93989 24.8446 9.43724 24.7278 10.0189C24.6601 10.3564 24.7042 10.6034 24.8323 10.6034C25.1312 10.6034 25.8841 10.0321 26.142 9.60971C26.2776 9.38765 26.4325 8.89874 26.4325 8.69293C26.4325 8.50343 26.3771 8.49714 26.0193 8.64596Z" fill="white"/>
<path d="M20.3045 6.15498C19.7286 6.83656 19.7322 8.22529 20.3114 8.9021L20.4632 9.07945C20.4707 9.08817 20.4743 9.09951 20.4734 9.11094L20.4431 9.46938C20.4039 9.93271 20.2795 10.521 20.1196 10.9994C19.8358 11.8482 19.1067 13.1159 18.3137 14.1392C17.8849 14.6925 16.8615 15.9377 16.6582 16.1578C16.6406 16.1769 16.6089 16.2096 16.5932 16.2303L16.1546 16.8059L15.8818 17.229C15.7318 17.4616 15.5804 17.7074 15.5453 17.7752L15.5117 17.8403C15.4975 17.8677 15.4598 17.8716 15.4403 17.8476L15.1831 17.5313C14.8546 17.1271 14.4039 16.7127 13.8034 16.2628L13.4237 15.9782C13.4154 15.972 13.4096 15.963 13.4075 15.9528L13.1915 14.9276C12.7956 13.0489 12.7425 12.833 12.6194 12.6009C12.4592 12.2989 11.4003 11.2415 10.7709 10.7549L10.2978 10.3892C10.2892 10.3825 10.2835 10.3729 10.2817 10.3622L10.2304 10.0514C10.1603 9.62684 10.0065 9.33029 9.70131 9.03108C9.46186 8.79634 8.73084 8.31626 8.6841 8.363C8.67129 8.37582 8.63846 8.51316 8.61114 8.66828C8.4738 9.44798 8.92534 10.2918 9.68258 10.6707C9.86101 10.7599 10.0484 10.833 10.0991 10.833C10.1497 10.833 10.3381 10.9513 10.5176 11.0958C11.0208 11.501 12.106 12.5804 12.205 12.7742C12.2537 12.8696 12.3435 13.1899 12.4046 13.486C12.4656 13.7821 12.5884 14.3435 12.6773 14.7336C12.7661 15.1237 12.8304 15.4512 12.8201 15.4616C12.7864 15.4953 11.7591 14.7071 11.4214 14.3885C10.9724 13.965 10.5963 13.3919 10.4353 12.8861C10.3115 12.4975 10.1684 12.4283 9.8633 12.1647C9.65875 11.9879 9.47155 11.8432 9.4474 11.8432C9.37628 11.8432 9.32866 12.2409 9.33197 12.8075C9.33693 13.6574 9.56155 14.3203 10.1677 15.2736C10.2265 15.366 10.1976 15.3601 9.83231 15.2047C9.28913 14.9735 8.49772 14.3359 8.45296 14.0933C8.41558 13.8909 8.25125 13.6023 8.08177 13.4415C7.91391 13.2822 7.50631 13.0964 7.19565 13.0375C6.82497 12.9672 6 12.9766 6 13.0511C6 13.2027 6.2603 13.6067 6.50236 13.8308C6.88305 14.1833 7.4362 14.4147 7.89811 14.4147C8.05574 14.4147 8.11566 14.4502 8.38275 14.7022C8.90197 15.1921 9.24317 15.4254 9.78015 15.658C10.6918 16.0529 10.8768 16.1711 11.231 16.585C11.4074 16.7911 11.5439 16.9674 11.5345 16.9769L12.0299 17.5143L12.3327 17.8586C13.9184 19.6622 14.9294 21.216 15.3461 22.4899C15.3885 22.6198 15.4378 22.7261 15.4556 22.7261C15.4734 22.7261 15.5583 22.566 15.6442 22.3702C15.9895 21.5835 16.6255 20.5366 17.0344 20.0818C17.2097 19.8867 17.2558 19.7908 17.357 19.4106C17.6526 18.2999 18.1126 17.3035 18.9575 15.9437C19.2714 15.4384 19.3023 15.406 20.6843 14.1299C22.5418 12.4146 22.7131 12.25 22.8745 12.0253C22.95 11.9202 23.1223 11.7175 23.2575 11.5747C23.8477 10.9511 24.1367 10.2465 24.1367 9.43113C24.1367 8.98585 24.0535 8.6145 23.9154 8.44396L23.8645 8.38117C23.8478 8.36055 23.8166 8.35989 23.7991 8.37979L23.6149 8.58861C22.8859 9.41534 22.5837 10.2738 22.7093 11.1612L22.7653 11.5569C22.7672 11.57 22.7629 11.5831 22.7538 11.5926L22.5916 11.7615C22.4944 11.8627 22.0223 12.3024 21.5425 12.7386C21.0627 13.1747 20.5211 13.6766 20.339 13.8538L20.1902 13.9986C20.1555 14.0323 20.1003 13.9918 20.122 13.9486L20.1842 13.8247C20.9644 12.2703 21.2476 10.8342 21.0391 9.49014C20.9589 8.97336 20.9589 8.97323 21.0601 8.72072C21.2114 8.34289 21.2312 7.86143 21.1143 7.39925C21.0162 7.01119 20.7184 6.35496 20.5374 6.12798L20.468 6.04084C20.4511 6.0197 20.4191 6.01924 20.4017 6.03989L20.3045 6.15498Z" fill="white"/>
<path d="M15.7748 27.4551H17.9143L18.152 28.1838H15.5371L15.7748 27.4551Z" fill="#4600E9"/>
<path d="M16.1421 26.4258H17.7168L17.8743 26.8973H15.9453L16.1421 26.4258Z" fill="#4600E9"/>
<path d="M16.5112 25.4824H17.6707L17.8518 25.8682H16.3301L16.5112 25.4824Z" fill="#4600E9"/>
<path d="M16.8449 24.6035H17.8084L17.9589 24.925H16.6943L16.8449 24.6035Z" fill="#4600E9"/>
<path d="M17.182 23.8105H17.9659L18.0884 24.0463H17.0596L17.182 23.8105Z" fill="#4600E9"/>
<circle cx="20.2742" cy="28.3113" r="0.492968" fill="white"/>
<path d="M57.4367 6.45898H62.1698L54.9614 19.1028V25.4112H50.5004V19.1028L43.292 6.45898H48.025L52.7309 15.0687L57.4367 6.45898Z" fill="#141414"/>
<path d="M67.915 25.709C65.8477 25.709 64.134 25.0682 62.7739 23.7867C61.4139 22.4871 60.7338 20.7995 60.7338 18.7238C60.7338 16.6661 61.4048 14.9875 62.7467 13.6879C64.1068 12.3883 65.7842 11.7385 67.779 11.7385C69.7375 11.7385 71.3605 12.3522 72.648 13.5796C73.9356 14.7889 74.5793 16.3863 74.5793 18.3718C74.5793 18.7328 74.5521 19.184 74.4977 19.7255H65.1132C65.2583 20.5738 65.5757 21.2146 66.0653 21.6478C66.5731 22.081 67.1805 22.2976 67.8878 22.2976C68.4862 22.2976 69.003 22.1532 69.4383 21.8644C69.8735 21.5576 70.1455 21.1514 70.2543 20.646L74.0353 21.6478C73.6726 22.9835 72.9291 23.9943 71.8048 24.6802C70.6986 25.366 69.402 25.709 67.915 25.709ZM65.2493 17.0181H70.4175C70.3087 16.5307 70.0186 16.1065 69.5471 15.7456C69.0937 15.3665 68.5134 15.177 67.8062 15.177C66.5368 15.177 65.6845 15.7907 65.2493 17.0181Z" fill="#141414"/>
<path d="M89.042 21.9456C89.187 21.9456 89.3956 21.9005 89.6676 21.8103V25.4653C89.2868 25.6097 88.7518 25.6819 88.0627 25.6819C86.3218 25.6819 85.1431 25.1946 84.5265 24.2199C83.5836 25.1946 82.2326 25.6819 80.4735 25.6819C79.0953 25.6819 77.971 25.3209 77.1006 24.5989C76.2482 23.8769 75.8221 22.8842 75.8221 21.6207C75.8221 20.4475 76.212 19.4999 76.9917 18.7779C77.7715 18.0559 78.8233 17.6317 80.1471 17.5054L84.0369 17.1534V16.8827C84.0369 16.3592 83.8556 15.9441 83.4929 15.6373C83.1302 15.3124 82.6678 15.1499 82.1056 15.1499C81.0901 15.1499 80.4826 15.6373 80.2831 16.6119L76.3933 16.0704C76.6291 14.5543 77.3 13.4532 78.4062 12.7674C79.5305 12.0815 80.8725 11.7385 82.432 11.7385C84.2817 11.7385 85.7325 12.1807 86.7843 13.0652C87.8542 13.9316 88.3891 15.168 88.3891 16.7744V21.2146C88.3891 21.702 88.6067 21.9456 89.042 21.9456ZM84.0369 20.1587V19.8609L81.48 20.1587C81.0448 20.2129 80.7002 20.3573 80.4463 20.5919C80.1924 20.8085 80.0655 21.0702 80.0655 21.3771C80.0655 21.7381 80.2196 22.0178 80.5279 22.2164C80.8543 22.4149 81.2624 22.5052 81.752 22.4871C82.4048 22.451 82.9489 22.2344 83.3841 21.8373C83.8193 21.4402 84.0369 20.8807 84.0369 20.1587Z" fill="#141414"/>
<path d="M99.4548 11.7385C100.978 11.7385 102.22 12.1807 103.181 13.0652C104.161 13.9496 104.65 15.186 104.65 16.7744V25.4112H100.298V18.101C100.298 17.2888 100.099 16.6841 99.6996 16.287C99.3006 15.8719 98.7566 15.6643 98.0675 15.6643C97.3784 15.6643 96.8253 15.8809 96.4082 16.3141C96.0093 16.7473 95.8098 17.3791 95.8098 18.2093V25.4112H91.4576V6.45898H95.8098V13.1193C96.6984 12.1988 97.9134 11.7385 99.4548 11.7385Z" fill="#141414"/>
<path d="M115.942 12.0093H120.294V25.4112H115.942V24.3011C115.054 25.2216 113.839 25.6819 112.297 25.6819C110.847 25.6819 109.613 25.2216 108.598 24.3011C107.6 23.3625 107.102 22.0539 107.102 20.3753V12.0093H111.454V19.4277C111.454 20.2038 111.653 20.7904 112.052 21.1875C112.451 21.5666 112.995 21.7561 113.685 21.7561C114.374 21.7561 114.918 21.5395 115.317 21.1063C115.734 20.6731 115.942 20.0414 115.942 19.2111V12.0093Z" fill="#141414"/>
<path d="M131.072 11.7385C132.921 11.7385 134.49 12.3973 135.777 13.715C137.065 15.0145 137.709 16.6841 137.709 18.7238C137.709 20.7273 137.074 22.3878 135.805 23.7055C134.535 25.0231 132.967 25.6819 131.099 25.6819C129.503 25.6819 128.197 25.1946 127.182 24.2199V25.4112H122.829V6.45898H127.182V13.1735C128.179 12.2168 129.476 11.7385 131.072 11.7385ZM130.201 21.9185C131.035 21.9185 131.742 21.6298 132.323 21.0522C132.903 20.4565 133.193 19.6804 133.193 18.7238C133.193 17.7491 132.903 16.9729 132.323 16.3953C131.761 15.7997 131.053 15.5019 130.201 15.5019C129.331 15.5019 128.605 15.7997 128.025 16.3953C127.463 16.9729 127.182 17.7491 127.182 18.7238C127.182 19.6804 127.463 20.4565 128.025 21.0522C128.605 21.6298 129.331 21.9185 130.201 21.9185Z" fill="#141414"/>
</svg>
